# xmcd
#
# Track frame offsets:
#	150
#	34370
#	77823
#	116210
#	162056
#	197363
#
# Disc length: 3223 seconds
#
# Revision: 1
# Processed by: cddbd v1.5.2PL0 Copyright (c) Steve Scherf et al.
# Submitted via: audiograbber 1.83.01
#
DISCID=460c9506
DTITLE=Bill Bruford's | Earthworks - Footloose in NYC- Disc 2-2019 Summerfold R
DTITLE=emaster
DYEAR=2019
DGENRE=Jazz
TTITLE0=The Emperor's New Clothes
TTITLE1=The Shadow of a Doubt
TTITLE2=Triplicity
TTITLE3=Footloose and Fancy Free
TTITLE4=Clood Cuckoo Land
TTITLE5=The Bridge of Inhibition
EXTD=
EXTT0=
EXTT1=
EXTT2=
EXTT3=
EXTT4=
EXTT5=
PLAYORDER=
